<?xml version="1.0" standalone="no"?>
<!DOCTYPE svg PUBLIC "-//W3C//DTD SVG 20010904//EN"
 "http://www.w3.org/TR/2001/REC-SVG-20010904/DTD/svg10.dtd">
<svg version="1.0" xmlns="http://www.w3.org/2000/svg"
 width="16.000000pt" height="16.000000pt" viewBox="0 0 16.000000 16.000000"
 preserveAspectRatio="xMidYMid meet">
<metadata>
Created by potrace 1.11, written by Peter Selinger 2001-2013
</metadata>
<g transform="translate(0.000000,16.000000) scale(0.001829,-0.001829)"
fill="#000000" stroke="none">
<path d="M4210 8746 c0 -2 11 -34 25 -70 14 -37 25 -71 25 -76 0 -5 -19 -3
-41 5 -23 8 -52 15 -65 15 -24 0 -24 -2 -24 -91 l0 -92 56 7 c64 7 84 -3 84
-43 0 -65 -77 -114 -181 -115 -46 0 -74 5 -92 17 -38 24 -50 52 -36 78 10 19
17 21 60 15 46 -6 49 -5 55 19 16 63 -37 105 -110 88 l-44 -10 -4 63 c-4 72
-26 104 -68 104 -38 0 -54 -35 -48 -102 3 -29 8 -60 12 -69 5 -12 0 -14 -27
-11 -68 8 -116 -70 -72 -118 23 -26 31 -25 57 5 27 31 62 32 82 3 34 -48 10
-90 -69 -124 -48 -20 -150 -23 -185 -5 -64 34 -72 61 -19 61 38 0 69 16 69 36
0 24 -39 94 -53 94 -7 0 -29 -11 -47 -25 -32 -23 -35 -24 -42 -8 -3 10 -7 40
-7 66 -1 34 -6 49 -17 54 -21 8 -111 -36 -117 -57 -2 -10 23 -66 56 -126 47
-85 62 -122 68 -171 5 -37 20 -84 39 -119 22 -41 30 -70 30 -106 0 -63 28 -90
119 -118 366 -114 1317 -75 1417 58 7 9 14 40 14 67 0 36 9 66 30 107 18 34
32 78 35 108 3 37 20 81 66 168 40 76 60 124 56 135 -7 19 -86 57 -117 57 -17
0 -20 -9 -22 -70 l-3 -70 -39 26 c-47 32 -62 26 -87 -34 -16 -37 -16 -43 -3
-57 9 -8 30 -15 47 -15 52 0 63 -14 30 -38 -69 -49 -172 -48 -259 3 -53 31
-63 58 -37 94 26 34 56 38 85 9 30 -30 45 -31 63 -5 36 51 -4 117 -71 117 -31
0 -35 3 -29 18 17 40 18 112 1 137 -41 63 -106 8 -106 -90 0 -50 -2 -56 -17
-50 -79 32 -146 1 -141 -64 l3 -36 55 0 55 0 0 -34 c0 -29 -6 -38 -35 -55
-110 -65 -323 32 -265 121 15 22 20 23 76 17 l59 -7 0 85 c0 46 -5 89 -11 95
-7 7 -25 6 -60 -4 -28 -8 -53 -12 -56 -9 -3 3 6 37 20 76 l26 70 -125 0 c-68
0 -124 -2 -124 -4z m178 -478 c23 -13 42 -27 42 -33 0 -5 -22 -24 -49 -42
l-48 -31 -46 30 c-26 17 -47 35 -47 42 0 13 68 55 90 56 8 0 34 -10 58 -22z
m-370 -14 c12 -8 22 -23 22 -34 0 -23 -54 -69 -83 -72 -12 0 -29 -2 -37 -3
-23 -2 -70 24 -70 39 0 31 15 49 54 67 50 23 85 24 114 3z m737 2 c18 -8 41
-26 51 -41 17 -25 16 -27 -4 -48 -53 -53 -199 7 -174 71 11 31 74 40 127 18z
m-1152 -82 c26 -9 47 -21 47 -28 0 -7 -18 -30 -41 -51 -39 -38 -41 -39 -55
-21 -26 36 -31 116 -6 116 5 0 29 -7 55 -16z m1531 0 c7 -17 -8 -79 -24 -104
-8 -12 -18 -7 -57 32 l-47 47 45 20 c55 24 75 26 83 5z m-509 -80 c167 -19
258 -38 314 -66 55 -27 70 -64 24 -55 -303 54 -430 67 -648 67 -163 0 -364
-20 -519 -51 -103 -21 -129 -20 -120 5 12 32 149 74 314 96 204 28 419 29 635
4z m146 -118 c168 -27 237 -65 204 -114 -22 -30 -84 -41 -102 -17 -7 11 -13
29 -13 41 0 13 -8 25 -18 28 -89 29 -534 44 -786 27 -211 -15 -250 -24 -254
-63 -2 -14 -9 -32 -17 -38 -31 -26 -115 19 -102 55 17 43 142 79 332 94 164
14 641 6 756 -13z"/>
<path d="M2745 7566 c-48 -14 -42 -19 50 -41 92 -22 239 -94 295 -144 l45 -40
-35 -28 c-77 -60 -195 -182 -245 -253 -171 -244 -223 -497 -150 -728 33 -103
72 -168 152 -253 215 -227 527 -258 892 -88 46 22 86 37 89 35 2 -3 30 -65 61
-138 77 -176 98 -217 198 -385 l85 -143 -17 -27 c-82 -128 -261 -321 -381
-411 -85 -64 -216 -133 -309 -162 -91 -28 -293 -38 -401 -20 -41 7 -77 10 -81
7 -22 -23 151 -119 247 -138 310 -58 642 88 981 433 l115 117 91 -98 c273
-293 584 -461 858 -462 145 -1 266 35 363 108 49 37 30 48 -56 33 -103 -19
-308 -8 -397 20 -199 63 -402 208 -564 404 -86 104 -141 180 -141 196 0 6 29
58 64 113 73 117 167 300 226 443 23 55 45 103 49 107 5 5 39 -7 77 -26 213
-107 442 -141 622 -93 237 64 429 291 461 546 10 75 0 216 -19 285 -61 219
-180 392 -390 568 l-45 38 44 39 c59 54 203 125 295 145 42 9 76 21 76 26 0
19 -86 31 -173 25 -129 -10 -240 -48 -365 -128 l-33 -20 -73 26 c-140 49 -319
77 -400 62 -50 -9 -46 -33 7 -46 127 -32 347 -122 347 -142 0 -5 -17 -27 -38
-51 -99 -110 -194 -247 -291 -422 -62 -110 -200 -387 -228 -457 -8 -21 -21
-38 -28 -38 -18 0 -172 164 -243 260 -88 118 -90 120 -105 115 -7 -3 -41 -45
-75 -93 -67 -96 -236 -282 -256 -282 -6 0 -52 84 -101 186 -152 318 -292 548
-427 705 l-68 79 24 15 c37 24 177 80 281 111 54 16 95 34 95 41 0 19 -63 26
-158 19 -99 -8 -129 -14 -263 -57 l-95 -31 -59 37 c-147 94 -357 139 -480 101z
m566 -418 c122 -167 279 -467 392 -753 80 -200 79 -191 22 -216 -138 -61 -299
-82 -425 -55 -202 43 -350 174 -389 347 -15 65 -13 215 4 288 21 86 81 212
139 288 47 62 171 183 188 183 4 0 36 -37 69 -82z m2219 -7 c155 -155 240
-345 240 -535 0 -151 -42 -257 -139 -349 -129 -124 -321 -172 -518 -131 -93
19 -203 61 -210 81 -7 18 38 138 134 358 123 281 231 473 351 622 41 52 46 50
142 -46z m-1000 -868 l81 -81 -30 -74 c-49 -123 -140 -316 -210 -446 l-34 -63
-19 28 c-42 62 -227 451 -252 531 -6 19 7 38 81 115 48 51 110 125 137 164
l49 72 58 -82 c32 -45 95 -119 139 -164z"/>
<path d="M1868 4213 c-434 -2 -788 -6 -788 -10 0 -3 40 -47 89 -98 98 -101
141 -168 171 -264 20 -62 20 -94 20 -1695 0 -1575 -1 -1635 -19 -1688 -36
-106 -98 -196 -203 -299 -31 -31 -54 -59 -51 -63 10 -10 1520 -7 1733 4 535
26 591 33 755 87 346 113 662 375 900 748 21 33 67 114 102 180 l63 120 -2
-365 c-3 -339 -5 -369 -24 -421 -31 -88 -82 -165 -167 -255 -43 -46 -76 -88
-72 -94 4 -7 519 -10 1611 -10 1466 0 1605 1 1611 16 3 9 -27 118 -66 243 -40
124 -101 315 -136 425 -35 109 -68 203 -73 208 -6 6 -30 -8 -67 -42 -32 -29
-82 -63 -111 -77 -115 -53 -146 -55 -758 -60 -313 -3 -611 -2 -663 2 l-93 7 0
578 c0 518 2 578 16 584 9 3 226 6 483 6 525 0 524 0 631 72 106 70 216 230
280 406 29 80 21 91 -47 68 -82 -28 -289 -37 -833 -34 l-525 3 -3 513 -2 513
732 -3 733 -3 62 -24 c75 -30 146 -81 189 -138 26 -34 34 -40 43 -29 18 22
170 848 159 869 -8 16 -93 17 -1578 17 -905 0 -1571 -4 -1574 -9 -3 -5 27 -43
67 -84 40 -41 89 -103 109 -138 64 -107 69 -153 66 -569 l-3 -365 -30 65 c-66
147 -137 280 -193 363 -266 396 -635 622 -1152 707 -121 20 -453 42 -555 37
-27 -1 -404 -3 -837 -4z m972 -681 c209 -49 366 -137 515 -287 184 -185 283
-404 332 -735 23 -155 22 -514 -1 -695 -69 -525 -273 -843 -624 -972 -138 -51
-230 -64 -489 -70 l-243 -6 0 1398 0 1397 213 -5 c164 -4 231 -10 297 -25z
m2420 -576 c58 -38 86 -102 69 -154 l-12 -37 -14 48 c-16 54 -50 81 -115 92
-54 9 -120 -24 -164 -84 -36 -49 -87 -170 -99 -233 l-7 -38 135 0 c125 0 205
8 251 26 19 7 19 6 -2 -23 -40 -56 -80 -67 -251 -73 l-153 -5 -78 -275 c-138
-491 -171 -575 -260 -673 -118 -129 -289 -157 -382 -62 -32 32 -50 87 -39 118
8 20 10 18 26 -20 28 -69 84 -91 166 -67 66 20 137 100 194 218 58 121 85 206
156 491 33 132 62 248 65 258 5 16 -6 17 -135 17 -78 0 -141 -3 -141 -6 0 -3
10 -19 21 -36 67 -93 64 -260 -7 -400 -36 -71 -126 -163 -190 -194 -64 -31
-164 -42 -218 -24 -134 44 -193 230 -132 413 43 128 128 236 228 289 41 22 53
23 320 26 l276 3 30 93 c34 105 74 182 128 244 91 107 232 135 334 68z"/>
<path d="M4275 2468 c-81 -44 -155 -178 -190 -344 -19 -88 -19 -146 -1 -189
31 -73 95 -68 167 14 82 92 139 251 139 384 0 86 -12 120 -47 136 -30 14 -42
13 -68 -1z"/>
</g>
</svg>
